<?xml version="1.0" encoding="utf-8"?>
<!-- Generator: Adobe Illustrator 16.0.0, SVG Export Plug-In . SVG Version: 6.00 Build 0)  -->
<!DOCTYPE svg PUBLIC "-//W3C//DTD SVG 1.1//EN" "http://www.w3.org/Graphics/SVG/1.1/DTD/svg11.dtd">
<svg version="1.1" id="Warstwa_1" xmlns="http://www.w3.org/2000/svg" xmlns:xlink="http://www.w3.org/1999/xlink" x="0px" y="0px"
	 width="39.701px" height="23.283px" viewBox="1 1 39.701 23.283" enable-background="new 1 1 39.701 23.283" xml:space="preserve">
<path fill="#FFFFFF" d="M7.533,14.065c0,1.843,0.67,3.351,1.843,4.523c1.34,1.34,2.848,1.842,4.523,1.842
	c1.842,0,3.35-0.669,4.522-1.842c1.34-1.34,1.842-2.849,1.842-4.523v-2.68c0-2.848,1.005-5.193,3.015-7.203
	c2.011-2.01,4.356-3.016,7.204-3.016c2.847,0,5.193,1.005,7.203,3.016c2.01,2.01,3.016,4.355,3.016,7.203v1.005h-3.686v-1.005
	c0-1.843-0.67-3.351-1.843-4.522C33.833,5.522,32.325,5.02,30.65,5.02c-1.843,0-3.351,0.67-4.523,1.843
	c-1.34,1.339-1.843,2.847-1.843,4.522v2.68c0,2.849-1.005,5.192-3.015,7.203c-2.011,2.011-4.355,3.015-7.203,3.015
	s-5.192-1.004-7.203-3.015c-2.011-2.011-3.016-4.354-3.016-7.203H7.533z"/>
<path fill="#FFFFFF" d="M10.213,5.69c0,2.513-2.011,4.69-4.69,4.69C3.01,10.38,1,8.37,1,5.69C1,3.178,3.01,1,5.69,1
	C8.203,1.167,10.213,3.178,10.213,5.69"/>
</svg>
